# xmcd
#
# Track frame offsets: 
#        150
#        22116
#        34205
#        48933
#        63169
#        75118
#        94313
#        110027
#        128386
#        149229
#        186848
#        201336
#        212652
#        230773
#        250022
#
# Disc length: 3604 seconds
#
# Revision: 3
# Processed by: cddbd v1.5.2PL0 Copyright (c) Steve Scherf et al.
# Submitted via: ExactAudioCopy v0.99pb5
#
DISCID=d50e120f
DTITLE=Various Artist - Body and Soul - TL XXD-10 - Christmas - CD 2
DYEAR=2005
DGENRE=Pop
TTITLE0=Vanessa Williams and Bobby Caldwell - Baby, it's cold outside
TTITLE1=Jackson 5 - Frosty the snowman
TTITLE2=Al Green - I'll be home for Christmas
TTITLE3=Diana Ross - Little drummer boy
TTITLE4=William Bell - Everyday will be like a holiday
TTITLE5=Love Unlimited - It may be winter outside (but in my heart it'
TTITLE5=s spring)
TTITLE6=Marvin Gaye - I want to come home for Christmas
TTITLE7=R. Kelly - World Christmas
TTITLE8=Destiny's Child - Opera of the bells
TTITLE9=Ohio Players - Happy holidays
TTITLE10=James Brown - It's Christmas time
TTITLE11=Stevie Wonder - What Christmas means to me
TTITLE12=Donna Summer - O holy night
TTITLE13=Stylistics - God rest ye merry gentlemen
TTITLE14=Patti Labelle - What are you doing new year's eve
EXTD=
EXTT0=
EXTT1=
EXTT2=
EXTT3=
EXTT4=
EXTT5=
EXTT6=
EXTT7=
EXTT8=
EXTT9=
EXTT10=
EXTT11=
EXTT12=
EXTT13=
EXTT14=
PLAYORDER=
